<mxfile host="app.diagrams.net" modified="2021-02-02T07:33:52.574Z" agent="5.0 (Macintosh; Intel Mac OS X 11_1_0) AppleWebKit/537.36 (KHTML, like Gecko) Chrome/88.0.4324.96 Safari/537.36" etag="E0rryrdEYRSUpluhmvMr" version="14.2.9" type="github">
  <diagram id="kttMU8aqjuccED0ETCXs" name="第 1 页">
    <mxGraphModel dx="2066" dy="1056" grid="1" gridSize="10" guides="1" tooltips="1" connect="1" arrows="1" fold="1" page="1" pageScale="1" pageWidth="827" pageHeight="1169" math="0" shadow="0">
      <root>
        <mxCell id="0" />
        <mxCell id="1" parent="0" />
        <mxCell id="LLrbU3jSWrvTlNxRiFdD-23" value="" style="rounded=0;whiteSpace=wrap;html=1;fillColor=none;dashed=1;" parent="1" vertex="1">
          <mxGeometry x="120" y="500" width="550" height="420" as="geometry" />
        </mxCell>
        <mxCell id="LLrbU3jSWrvTlNxRiFdD-1" value="" style="endArrow=classic;html=1;" parent="1" edge="1">
          <mxGeometry width="50" height="50" relative="1" as="geometry">
            <mxPoint x="289.5" y="120" as="sourcePoint" />
            <mxPoint x="289.5" y="170" as="targetPoint" />
          </mxGeometry>
        </mxCell>
        <mxCell id="LLrbU3jSWrvTlNxRiFdD-6" style="edgeStyle=orthogonalEdgeStyle;rounded=0;orthogonalLoop=1;jettySize=auto;html=1;" parent="1" source="LLrbU3jSWrvTlNxRiFdD-2" edge="1">
          <mxGeometry relative="1" as="geometry">
            <mxPoint x="290" y="300" as="targetPoint" />
          </mxGeometry>
        </mxCell>
        <mxCell id="LLrbU3jSWrvTlNxRiFdD-2" value="读kconf&lt;br&gt;ENVELOPE_CONF&lt;br&gt;{{gifTutorial}}&lt;br&gt;{{envelopeNumbers}}" style="rounded=0;whiteSpace=wrap;html=1;" parent="1" vertex="1">
          <mxGeometry x="200" y="170" width="180" height="90" as="geometry" />
        </mxCell>
        <mxCell id="LLrbU3jSWrvTlNxRiFdD-4" value="node server" style="text;html=1;strokeColor=none;fillColor=none;align=center;verticalAlign=middle;whiteSpace=wrap;rounded=0;" parent="1" vertex="1">
          <mxGeometry x="560" y="250" width="146" height="20" as="geometry" />
        </mxCell>
        <mxCell id="LLrbU3jSWrvTlNxRiFdD-5" value="" style="endArrow=none;dashed=1;html=1;" parent="1" edge="1">
          <mxGeometry width="50" height="50" relative="1" as="geometry">
            <mxPoint x="80" y="150" as="sourcePoint" />
            <mxPoint x="760" y="150" as="targetPoint" />
          </mxGeometry>
        </mxCell>
        <mxCell id="LLrbU3jSWrvTlNxRiFdD-10" style="edgeStyle=orthogonalEdgeStyle;rounded=0;orthogonalLoop=1;jettySize=auto;html=1;" parent="1" source="LLrbU3jSWrvTlNxRiFdD-8" edge="1">
          <mxGeometry relative="1" as="geometry">
            <mxPoint x="290" y="400" as="targetPoint" />
          </mxGeometry>
        </mxCell>
        <mxCell id="LLrbU3jSWrvTlNxRiFdD-8" value="调用landpage（或者读取缓存）&lt;br&gt;{{pullUpSwitch}}&lt;br&gt;{{h5VideoUrl}}" style="rounded=0;whiteSpace=wrap;html=1;" parent="1" vertex="1">
          <mxGeometry x="200" y="300" width="180" height="60" as="geometry" />
        </mxCell>
        <mxCell id="LLrbU3jSWrvTlNxRiFdD-60" style="edgeStyle=orthogonalEdgeStyle;rounded=0;orthogonalLoop=1;jettySize=auto;html=1;exitX=0;exitY=0.5;exitDx=0;exitDy=0;entryX=0;entryY=0.5;entryDx=0;entryDy=0;" parent="1" source="LLrbU3jSWrvTlNxRiFdD-12" target="LLrbU3jSWrvTlNxRiFdD-46" edge="1">
          <mxGeometry relative="1" as="geometry">
            <mxPoint x="120" y="990" as="targetPoint" />
          </mxGeometry>
        </mxCell>
        <mxCell id="LLrbU3jSWrvTlNxRiFdD-12" value="打开页面，初始化程序" style="rounded=0;whiteSpace=wrap;html=1;" parent="1" vertex="1">
          <mxGeometry x="200" y="400" width="180" height="60" as="geometry" />
        </mxCell>
        <mxCell id="LLrbU3jSWrvTlNxRiFdD-13" value="" style="endArrow=classic;html=1;" parent="1" edge="1">
          <mxGeometry width="50" height="50" relative="1" as="geometry">
            <mxPoint x="240" y="460" as="sourcePoint" />
            <mxPoint x="210" y="520" as="targetPoint" />
          </mxGeometry>
        </mxCell>
        <mxCell id="LLrbU3jSWrvTlNxRiFdD-14" value="" style="endArrow=classic;html=1;" parent="1" edge="1">
          <mxGeometry width="50" height="50" relative="1" as="geometry">
            <mxPoint x="330" y="460" as="sourcePoint" />
            <mxPoint x="360" y="520" as="targetPoint" />
          </mxGeometry>
        </mxCell>
        <mxCell id="LLrbU3jSWrvTlNxRiFdD-15" value="初始化数字滚动&lt;br&gt;" style="rounded=0;whiteSpace=wrap;html=1;strokeColor=#330000;" parent="1" vertex="1">
          <mxGeometry x="140" y="525" width="120" height="60" as="geometry" />
        </mxCell>
        <mxCell id="LLrbU3jSWrvTlNxRiFdD-17" value="" style="endArrow=none;dashed=1;html=1;" parent="1" edge="1">
          <mxGeometry width="50" height="50" relative="1" as="geometry">
            <mxPoint x="74" y="380" as="sourcePoint" />
            <mxPoint x="754" y="380" as="targetPoint" />
          </mxGeometry>
        </mxCell>
        <mxCell id="LLrbU3jSWrvTlNxRiFdD-18" value="browser" style="text;html=1;strokeColor=none;fillColor=none;align=center;verticalAlign=middle;whiteSpace=wrap;rounded=0;" parent="1" vertex="1">
          <mxGeometry x="560" y="430" width="146" height="20" as="geometry" />
        </mxCell>
        <mxCell id="LLrbU3jSWrvTlNxRiFdD-21" style="edgeStyle=orthogonalEdgeStyle;rounded=0;orthogonalLoop=1;jettySize=auto;html=1;exitX=1;exitY=0.5;exitDx=0;exitDy=0;" parent="1" source="LLrbU3jSWrvTlNxRiFdD-19" edge="1">
          <mxGeometry relative="1" as="geometry">
            <mxPoint x="500" y="555" as="targetPoint" />
          </mxGeometry>
        </mxCell>
        <mxCell id="LLrbU3jSWrvTlNxRiFdD-24" style="edgeStyle=orthogonalEdgeStyle;rounded=0;orthogonalLoop=1;jettySize=auto;html=1;" parent="1" source="LLrbU3jSWrvTlNxRiFdD-19" edge="1">
          <mxGeometry relative="1" as="geometry">
            <mxPoint x="362" y="640" as="targetPoint" />
          </mxGeometry>
        </mxCell>
        <mxCell id="LLrbU3jSWrvTlNxRiFdD-19" value="是否微信环境&lt;br&gt;&amp;amp;&amp;amp; pullUpSwitch" style="rhombus;whiteSpace=wrap;html=1;" parent="1" vertex="1">
          <mxGeometry x="292" y="521.25" width="140" height="67.5" as="geometry" />
        </mxCell>
        <mxCell id="LLrbU3jSWrvTlNxRiFdD-22" value="现有流程不做处理" style="rounded=0;whiteSpace=wrap;html=1;strokeColor=#3333FF;" parent="1" vertex="1">
          <mxGeometry x="505" y="525" width="120" height="60" as="geometry" />
        </mxCell>
        <mxCell id="LLrbU3jSWrvTlNxRiFdD-28" style="edgeStyle=orthogonalEdgeStyle;rounded=0;orthogonalLoop=1;jettySize=auto;html=1;exitX=0;exitY=0.5;exitDx=0;exitDy=0;" parent="1" source="LLrbU3jSWrvTlNxRiFdD-26" edge="1">
          <mxGeometry relative="1" as="geometry">
            <mxPoint x="250" y="674" as="targetPoint" />
          </mxGeometry>
        </mxCell>
        <mxCell id="LLrbU3jSWrvTlNxRiFdD-32" style="edgeStyle=orthogonalEdgeStyle;rounded=0;orthogonalLoop=1;jettySize=auto;html=1;exitX=0.5;exitY=1;exitDx=0;exitDy=0;" parent="1" source="LLrbU3jSWrvTlNxRiFdD-26" edge="1">
          <mxGeometry relative="1" as="geometry">
            <mxPoint x="362" y="750" as="targetPoint" />
          </mxGeometry>
        </mxCell>
        <mxCell id="LLrbU3jSWrvTlNxRiFdD-26" value="是否3G环境" style="rhombus;whiteSpace=wrap;html=1;strokeColor=#FF4791;" parent="1" vertex="1">
          <mxGeometry x="292" y="640" width="140" height="67.5" as="geometry" />
        </mxCell>
        <mxCell id="LLrbU3jSWrvTlNxRiFdD-27" value="添加教程弹窗" style="text;html=1;strokeColor=none;fillColor=none;align=center;verticalAlign=middle;whiteSpace=wrap;rounded=0;dashed=1;" parent="1" vertex="1">
          <mxGeometry x="364" y="608" width="80" height="10" as="geometry" />
        </mxCell>
        <mxCell id="LLrbU3jSWrvTlNxRiFdD-29" value="使用图片切换展示教程" style="rounded=0;whiteSpace=wrap;html=1;fillColor=none;strokeColor=#FF4791;" parent="1" vertex="1">
          <mxGeometry x="130" y="648" width="120" height="60" as="geometry" />
        </mxCell>
        <mxCell id="LLrbU3jSWrvTlNxRiFdD-30" value="是" style="text;html=1;strokeColor=none;fillColor=none;align=center;verticalAlign=middle;whiteSpace=wrap;rounded=0;dashed=1;" parent="1" vertex="1">
          <mxGeometry x="252" y="648" width="40" height="10" as="geometry" />
        </mxCell>
        <mxCell id="LLrbU3jSWrvTlNxRiFdD-35" style="edgeStyle=orthogonalEdgeStyle;rounded=0;orthogonalLoop=1;jettySize=auto;html=1;" parent="1" source="LLrbU3jSWrvTlNxRiFdD-34" edge="1">
          <mxGeometry relative="1" as="geometry">
            <mxPoint x="250" y="784" as="targetPoint" />
          </mxGeometry>
        </mxCell>
        <mxCell id="LLrbU3jSWrvTlNxRiFdD-39" style="edgeStyle=orthogonalEdgeStyle;rounded=0;orthogonalLoop=1;jettySize=auto;html=1;exitX=0.5;exitY=1;exitDx=0;exitDy=0;" parent="1" source="LLrbU3jSWrvTlNxRiFdD-34" edge="1">
          <mxGeometry relative="1" as="geometry">
            <mxPoint x="362" y="850" as="targetPoint" />
          </mxGeometry>
        </mxCell>
        <mxCell id="LLrbU3jSWrvTlNxRiFdD-34" value="gifTutorial" style="rhombus;whiteSpace=wrap;html=1;strokeColor=#FF4791;" parent="1" vertex="1">
          <mxGeometry x="292" y="750" width="140" height="67.5" as="geometry" />
        </mxCell>
        <mxCell id="LLrbU3jSWrvTlNxRiFdD-36" value="使用gif图教程" style="rounded=0;whiteSpace=wrap;html=1;fillColor=none;strokeColor=#FF4791;" parent="1" vertex="1">
          <mxGeometry x="130" y="757.5" width="120" height="60" as="geometry" />
        </mxCell>
        <mxCell id="LLrbU3jSWrvTlNxRiFdD-37" value="true" style="text;html=1;strokeColor=none;fillColor=none;align=center;verticalAlign=middle;whiteSpace=wrap;rounded=0;dashed=1;" parent="1" vertex="1">
          <mxGeometry x="252" y="764.5" width="40" height="10" as="geometry" />
        </mxCell>
        <mxCell id="LLrbU3jSWrvTlNxRiFdD-38" value="否" style="text;html=1;strokeColor=none;fillColor=none;align=center;verticalAlign=middle;whiteSpace=wrap;rounded=0;dashed=1;" parent="1" vertex="1">
          <mxGeometry x="364" y="720" width="40" height="10" as="geometry" />
        </mxCell>
        <mxCell id="LLrbU3jSWrvTlNxRiFdD-40" value="使用mp4播放教程" style="rounded=0;whiteSpace=wrap;html=1;fillColor=none;strokeColor=#FF4791;" parent="1" vertex="1">
          <mxGeometry x="302" y="850" width="120" height="60" as="geometry" />
        </mxCell>
        <mxCell id="LLrbU3jSWrvTlNxRiFdD-41" value="页面初始化过程更改" style="text;html=1;strokeColor=none;fillColor=none;align=center;verticalAlign=middle;whiteSpace=wrap;rounded=0;" parent="1" vertex="1">
          <mxGeometry x="570" y="890" width="85" height="20" as="geometry" />
        </mxCell>
        <mxCell id="LLrbU3jSWrvTlNxRiFdD-52" style="edgeStyle=orthogonalEdgeStyle;rounded=0;orthogonalLoop=1;jettySize=auto;html=1;exitX=1;exitY=0.5;exitDx=0;exitDy=0;" parent="1" source="LLrbU3jSWrvTlNxRiFdD-46" edge="1">
          <mxGeometry relative="1" as="geometry">
            <mxPoint x="294" y="973.75" as="targetPoint" />
          </mxGeometry>
        </mxCell>
        <mxCell id="LLrbU3jSWrvTlNxRiFdD-55" style="edgeStyle=orthogonalEdgeStyle;rounded=0;orthogonalLoop=1;jettySize=auto;html=1;" parent="1" source="LLrbU3jSWrvTlNxRiFdD-46" edge="1">
          <mxGeometry relative="1" as="geometry">
            <mxPoint x="196" y="1043.75" as="targetPoint" />
          </mxGeometry>
        </mxCell>
        <mxCell id="LLrbU3jSWrvTlNxRiFdD-46" value="微信环境&amp;amp;&amp;amp;&lt;br&gt;pullUpSwitch" style="rhombus;whiteSpace=wrap;html=1;" parent="1" vertex="1">
          <mxGeometry x="126" y="940" width="140" height="67.5" as="geometry" />
        </mxCell>
        <mxCell id="LLrbU3jSWrvTlNxRiFdD-47" value="否" style="text;html=1;strokeColor=none;fillColor=none;align=center;verticalAlign=middle;whiteSpace=wrap;rounded=0;" parent="1" vertex="1">
          <mxGeometry x="444" y="530" width="40" height="20" as="geometry" />
        </mxCell>
        <mxCell id="LLrbU3jSWrvTlNxRiFdD-48" value="否" style="text;html=1;strokeColor=none;fillColor=none;align=center;verticalAlign=middle;whiteSpace=wrap;rounded=0;dashed=1;" parent="1" vertex="1">
          <mxGeometry x="314" y="611" width="40" height="10" as="geometry" />
        </mxCell>
        <mxCell id="LLrbU3jSWrvTlNxRiFdD-51" value="是" style="edgeStyle=orthogonalEdgeStyle;rounded=0;orthogonalLoop=1;jettySize=auto;html=1;exitX=0.5;exitY=1;exitDx=0;exitDy=0;entryX=0.5;entryY=0;entryDx=0;entryDy=0;" parent="1" source="LLrbU3jSWrvTlNxRiFdD-48" target="LLrbU3jSWrvTlNxRiFdD-48" edge="1">
          <mxGeometry relative="1" as="geometry" />
        </mxCell>
        <mxCell id="LLrbU3jSWrvTlNxRiFdD-54" value="autolanch" style="rounded=0;whiteSpace=wrap;html=1;fillColor=none;strokeColor=#3333FF;" parent="1" vertex="1">
          <mxGeometry x="294" y="943.75" width="120" height="60" as="geometry" />
        </mxCell>
        <mxCell id="LLrbU3jSWrvTlNxRiFdD-57" value="showVideoDialog" style="rounded=0;whiteSpace=wrap;html=1;fillColor=none;strokeColor=#FF4791;" parent="1" vertex="1">
          <mxGeometry x="136" y="1043.75" width="120" height="60" as="geometry" />
        </mxCell>
        <mxCell id="LLrbU3jSWrvTlNxRiFdD-58" value="否" style="text;html=1;strokeColor=none;fillColor=none;align=center;verticalAlign=middle;whiteSpace=wrap;rounded=0;" parent="1" vertex="1">
          <mxGeometry x="256" y="943.75" width="40" height="20" as="geometry" />
        </mxCell>
        <mxCell id="LLrbU3jSWrvTlNxRiFdD-59" value="是" style="text;html=1;strokeColor=none;fillColor=none;align=center;verticalAlign=middle;whiteSpace=wrap;rounded=0;" parent="1" vertex="1">
          <mxGeometry x="188" y="1013.75" width="40" height="20" as="geometry" />
        </mxCell>
        <mxCell id="LLrbU3jSWrvTlNxRiFdD-61" value="点击页面" style="text;html=1;strokeColor=none;fillColor=none;align=center;verticalAlign=middle;whiteSpace=wrap;rounded=0;" parent="1" vertex="1">
          <mxGeometry x="60" y="910" width="40" height="20" as="geometry" />
        </mxCell>
        <mxCell id="LLrbU3jSWrvTlNxRiFdD-64" value="若命中缓存，请求接口后再初始化" style="text;html=1;strokeColor=none;fillColor=none;align=center;verticalAlign=middle;whiteSpace=wrap;rounded=0;" parent="1" vertex="1">
          <mxGeometry x="380" y="420" width="116" height="20" as="geometry" />
        </mxCell>
      </root>
    </mxGraphModel>
  </diagram>
</mxfile>
